<?xml version="1.0" encoding="utf-8"?>
<svg version="1.1" id="cosmed_logo" xmlns="http://www.w3.org/2000/svg" xmlns:xlink="http://www.w3.org/1999/xlink" x="0px" y="0px"
	 width="128px" height="128px" viewBox="192 192 128 128" enable-background="new 192 192 128 128" xml:space="preserve">
<path fill="#FFFFFF" d="M267.254,206.15c-3.631,0.021-6.594-2.906-6.613-6.536c-0.021-3.631,2.903-6.592,6.534-6.613
	s6.594,2.905,6.614,6.536c0,0.013,0,0.025,0,0.039C273.789,203.191,270.868,206.128,267.254,206.15"/>
<path fill="#FFFFFF" d="M244.785,206.15c-3.631,0.021-6.594-2.906-6.614-6.536c-0.021-3.631,2.904-6.592,6.536-6.613
	c3.631-0.021,6.593,2.905,6.613,6.536c0,0.013,0,0.025,0,0.039C251.32,203.191,248.399,206.128,244.785,206.15"/>
<path fill="#FFFFFF" d="M267.254,228.696c-3.61,0-6.536-2.926-6.536-6.535c0-3.611,2.926-6.537,6.536-6.537
	c3.607,0,6.535,2.926,6.535,6.537C273.789,225.771,270.862,228.696,267.254,228.696L267.254,228.696"/>
<path fill="#FFFFFF" d="M244.785,228.696c-3.611,0-6.538-2.926-6.538-6.535c0-3.611,2.927-6.537,6.538-6.537
	c3.607,0,6.535,2.926,6.535,6.537C251.32,225.771,248.392,228.696,244.785,228.696L244.785,228.696"/>
<path fill="#FFFFFF" d="M267.254,251.282c-3.631,0.022-6.594-2.905-6.613-6.536c-0.021-3.631,2.903-6.591,6.534-6.613
	c3.631-0.021,6.594,2.905,6.614,6.537c0,0.025,0,0.05,0,0.076C273.789,248.355,270.862,251.282,267.254,251.282L267.254,251.282"/>
<path fill="#FFFFFF" d="M244.785,251.282c-3.631,0.022-6.594-2.905-6.614-6.536c-0.021-3.631,2.904-6.591,6.536-6.613
	c3.631-0.021,6.593,2.905,6.613,6.537c0,0.025,0,0.05,0,0.076C251.32,248.355,248.392,251.282,244.785,251.282L244.785,251.282"/>
<path fill="#FFFFFF" d="M267.254,273.867c-3.631,0.021-6.594-2.904-6.613-6.535c-0.021-3.631,2.903-6.594,6.534-6.614
	c3.631-0.021,6.594,2.904,6.614,6.536c0,0.012,0,0.024,0,0.038C273.789,270.909,270.868,273.845,267.254,273.867"/>
<path fill="#FFFFFF" d="M289.838,251.282c-3.631,0-6.574-2.943-6.574-6.574c0-3.631,2.943-6.575,6.574-6.575
	c3.632,0,6.575,2.943,6.575,6.575c0,0.012,0,0.025,0,0.038c0,3.61-2.925,6.536-6.536,6.536
	C289.865,251.282,289.851,251.282,289.838,251.282"/>
<path fill="#FFFFFF" d="M289.838,273.867c-3.631,0-6.574-2.944-6.574-6.575s2.943-6.574,6.574-6.574
	c3.632,0,6.575,2.943,6.575,6.574S293.47,273.867,289.838,273.867L289.838,273.867"/>
<path fill="#FFFFFF" d="M312.462,251.282c-3.631,0.022-6.591-2.905-6.611-6.536c-0.022-3.631,2.904-6.591,6.536-6.613
	c3.63-0.021,6.59,2.905,6.613,6.537c0,0.025,0,0.05,0,0.076C319,248.355,316.073,251.282,312.462,251.282L312.462,251.282"/>
<path fill="#FFFFFF" d="M312.462,273.867c-3.631,0.021-6.591-2.904-6.611-6.535c-0.022-3.631,2.904-6.594,6.536-6.614
	c3.63-0.021,6.59,2.904,6.61,6.536c0.003,0.012,0.003,0.024,0.003,0.038C319,270.909,316.078,273.845,312.462,273.867"/>
<path fill="#FFFFFF" d="M244.785,273.867c-3.631,0.021-6.594-2.904-6.614-6.535c-0.021-3.631,2.904-6.594,6.536-6.614
	c3.631-0.021,6.593,2.904,6.613,6.536c0,0.012,0,0.024,0,0.038C251.32,270.909,248.399,273.845,244.785,273.867"/>
<path fill="#FFFFFF" d="M222.122,251.282c-3.631,0-6.574-2.943-6.574-6.574c0-3.631,2.943-6.575,6.574-6.575
	s6.575,2.943,6.575,6.575c0,0.012,0,0.025,0,0.038c0,3.61-2.927,6.536-6.536,6.536C222.147,251.282,222.135,251.282,222.122,251.282
	"/>
<path fill="#FFFFFF" d="M222.122,273.867c-3.631,0-6.574-2.944-6.574-6.575s2.943-6.574,6.574-6.574s6.575,2.943,6.575,6.574l0,0
	C228.697,270.923,225.753,273.867,222.122,273.867"/>
<path fill="#FFFFFF" d="M199.574,251.282c-3.632,0-6.574-2.943-6.574-6.574c0-3.631,2.942-6.575,6.574-6.575
	c3.631,0,6.575,2.943,6.575,6.575c0,0.012,0,0.025,0,0.038c0,3.61-2.925,6.536-6.536,6.536
	C199.6,251.282,199.586,251.282,199.574,251.282"/>
<path fill="#FFFFFF" d="M199.574,273.867c-3.632,0-6.574-2.944-6.574-6.575s2.942-6.574,6.574-6.574
	c3.631,0,6.575,2.943,6.575,6.574l0,0C206.149,270.923,203.205,273.867,199.574,273.867"/>
<path fill="#FFFFFF" d="M267.254,296.412c-3.61,0-6.536-2.926-6.536-6.537c0.002-3.61,2.93-6.533,6.538-6.533
	c3.548,0,6.448,2.833,6.533,6.381c0,3.61-2.928,6.536-6.535,6.536l0,0"/>
<path fill="#FFFFFF" d="M244.785,296.412c-3.611,0-6.536-2.926-6.536-6.537c0.003-3.61,2.929-6.533,6.538-6.533
	c3.549,0,6.449,2.833,6.533,6.381c0,3.61-2.927,6.536-6.535,6.536l0,0"/>
<path fill="#FFFFFF" d="M267.254,318.999c-3.61,0-6.536-2.927-6.536-6.535c0-3.61,2.926-6.538,6.536-6.538
	c3.607,0,6.535,2.928,6.535,6.538C273.789,316.072,270.862,318.999,267.254,318.999L267.254,318.999"/>
<path fill="#FFFFFF" d="M244.785,318.999c-3.611,0-6.538-2.927-6.538-6.535c0-3.61,2.927-6.538,6.538-6.538
	c3.607,0,6.535,2.928,6.535,6.538C251.32,316.072,248.392,318.999,244.785,318.999L244.785,318.999"/>
</svg>
